<?xml version="1.0" encoding="utf-8"?>
<!-- Generator: Adobe Illustrator 25.2.1, SVG Export Plug-In . SVG Version: 6.00 Build 0)  -->
<svg version="1.1" id="Layer_1" xmlns="http://www.w3.org/2000/svg" xmlns:xlink="http://www.w3.org/1999/xlink" x="0px" y="0px"
	 viewBox="0 0 246.6 84.6" style="enable-background:new 0 0 246.6 84.6;" xml:space="preserve">
<style type="text/css">
	.st0{fill:url(#SVGID_1_);stroke:#FFFFFF;stroke-width:2;stroke-miterlimit:10;}
	.st1{fill:url(#SVGID_2_);stroke:#FFFFFF;stroke-width:2;stroke-miterlimit:10;}
	.st2{fill:url(#SVGID_3_);stroke:#FFFFFF;stroke-width:2;stroke-miterlimit:10;}
	.st3{fill:url(#SVGID_4_);stroke:#FFFFFF;stroke-width:2;stroke-miterlimit:10;}
</style>
<g>
	<linearGradient id="SVGID_1_" gradientUnits="userSpaceOnUse" x1="54.1475" y1="13.2847" x2="55.8104" y2="71.4866">
		<stop  offset="0" style="stop-color:#3DCBF5"/>
		<stop  offset="1" style="stop-color:#2A93DF"/>
	</linearGradient>
	<path class="st0" d="M55.7,27.9c0.6-1.1,1.4-1.7,2-2c0.4-0.2,0.9-0.3,1.4-0.3h35.8c2.8,0,5.3-1.6,6.5-4.2l7.4-16.3
		c0.7-1.4-0.6-2.8-2.5-2.8c-13.8,0-64.4-0.2-66.7,0c-2.1,0.2-4,1.6-4.7,2.3c-0.2,0.2-0.4,0.4-0.5,0.7C31.8,10.6,2,76.2,1.5,77.8
		c-0.5,1.6-0.8,2.8,0.3,4.2c0.9,1.2,3.1,1.5,3.8,1.6c0.1,0,0.3,0,0.4,0h20.5c4.3,0,5.7-3.7,5.9-4.2c0,0,0-0.1,0-0.1
		C33.1,77.5,54.6,29.9,55.7,27.9z"/>
	<linearGradient id="SVGID_2_" gradientUnits="userSpaceOnUse" x1="69.757" y1="12.8387" x2="71.4199" y2="71.0407">
		<stop  offset="0" style="stop-color:#3DCBF5"/>
		<stop  offset="1" style="stop-color:#2A93DF"/>
	</linearGradient>
	<path class="st1" d="M53,64.8h21.7c2.5,0,4.8-1.4,5.8-3.7l8.1-17.3c1-2-0.5-4.3-2.8-4.3h-21L53,64.8z"/>
</g>
<linearGradient id="SVGID_3_" gradientUnits="userSpaceOnUse" x1="124.4123" y1="11.2771" x2="126.0753" y2="69.4791">
	<stop  offset="0" style="stop-color:#3DCBF5"/>
	<stop  offset="1" style="stop-color:#2A93DF"/>
</linearGradient>
<path class="st2" d="M163.7,19.5l-7.5-15.4c-0.5-1.2-1.7-1.7-3-1.7h-28.6c-4.1,0-5.2,3.3-5.3,3.9c0,0.1,0,0.1-0.1,0.2
	c-1.3,3-31.2,70-31.6,71.2c-0.5,1.6-0.8,2.8,0.3,4.2c1,1.3,3.5,1.6,4,1.6c0,0,0.1,0,0.1,0h22.4c4.6,0,5.9-4.2,5.9-4.2l17.8-38.2
	c1.2-2.5,4.7-2.6,6-0.3l4.1,7.1c1.1,1.9,3.3,0.7,4-0.6c3.6-7,8.8-19,11.2-24.2C164,22.1,164.1,20.7,163.7,19.5z"/>
<g>
	<linearGradient id="SVGID_4_" gradientUnits="userSpaceOnUse" x1="187.063" y1="9.0298" x2="188.726" y2="67.2317">
		<stop  offset="0" style="stop-color:#3DCBF5"/>
		<stop  offset="1" style="stop-color:#2A93DF"/>
	</linearGradient>
	<path class="st3" d="M164.4,16c1.8-4,2.9-6.5,2.9-6.5s0.9-2,1.5-3.5c0.9-2.3,1.9-3.6,6.2-3.6c1.6,0,13.1,0,13.1,0s11.8,0,13,0
		c4.2,0,4.6,1.5,6.4,4.7c0,0,33.2,69.5,33.6,70.7c0.5,1.6,0.8,2.8-0.3,4.2c-1.1,1.4-4,1.6-4,1.6s-17.9,0-22.5,0
		c-4.6,0-5.9-4.2-5.9-4.2l-15.5-38.9c0,0-0.7-2.6-3.6-2.6c-3,0-4,2.6-4,2.6l-15.5,38.9c0,0-1.3,4.2-5.9,4.2c-4.6,0-22.5,0-22.5,0
		s-2.9-0.2-4-1.6c-1.1-1.4-0.8-2.6-0.3-4.2c0.2-0.6,10.2-23.2,18.7-42.3L164.4,16z"/>
</g>
</svg>
